{
    "asset" : {
        "generator" : "Khronos glTF Blender I/O v1.8.14",
        "version" : "2.0"
    },
    "extensionsUsed" : [
        "KHR_materials_unlit"
    ],
    "scene" : 0,
    "scenes" : [
        {
            "name" : "Scene",
            "nodes" : [
                0,
                1,
                2,
                3,
                4,
                5,
                6,
                7,
                8
            ]
        }
    ],
    "nodes" : [
        {
            "mesh" : 0,
            "name" : "Cube.005",
            "scale" : [
                1,
                0.40988752245903015,
                2.3007047176361084
            ]
        },
        {
            "mesh" : 1,
            "name" : "Cube.006",
            "scale" : [
                1,
                0.6201463937759399,
                1.474574089050293
            ],
            "translation" : [
                0,
                1.451007604598999,
                0.8261305689811707
            ]
        },
        {
            "mesh" : 2,
            "name" : "Cube.007",
            "scale" : [
                1,
                0.6201463937759399,
                0.8182837963104248
            ],
            "translation" : [
                -1.3255559206008911,
                0.814595103263855,
                -2.3007047176361084
            ]
        },
        {
            "mesh" : 3,
            "name" : "Cube.001",
            "scale" : [
                1,
                1.0351346731185913,
                0.79570472240448
            ],
            "translation" : [
                3.0081751346588135,
                2.0599184036254883,
                2.290980815887451
            ]
        },
        {
            "mesh" : 4,
            "name" : "Cube.003",
            "scale" : [
                1,
                1.0351346731185913,
                0.6893099546432495
            ],
            "translation" : [
                1.0070712566375732,
                0.004098874982446432,
                -2.2863593101501465
            ]
        },
        {
            "mesh" : 5,
            "name" : "Cylinder",
            "rotation" : [
                0,
                0,
                -0.7071068286895752,
                0.7071068286895752
            ],
            "scale" : [
                0.9880838990211487,
                1.0070173740386963,
                0.9880838990211487
            ],
            "translation" : [
                1.5547096729278564,
                2.0599184036254883,
                2.290980815887451
            ]
        },
        {
            "mesh" : 6,
            "name" : "Cube.002",
            "scale" : [
                1,
                1.0351346731185913,
                -0.79570472240448
            ],
            "translation" : [
                3.0081751346588135,
                2.0599184036254883,
                -0.904321551322937
            ]
        },
        {
            "mesh" : 7,
            "name" : "Cylinder.001",
            "rotation" : [
                0,
                0,
                -0.7071067690849304,
                0.7071068286895752
            ],
            "scale" : [
                0.9880838990211487,
                1.0070173740386963,
                -0.9880838990211487
            ],
            "translation" : [
                1.5547096729278564,
                2.0599184036254883,
                -0.904321551322937
            ]
        },
        {
            "mesh" : 8,
            "name" : "Plane",
            "rotation" : [
                0,
                -0.30130913853645325,
                0,
                0.9535266160964966
            ],
            "scale" : [
                14.352128028869629,
                14.352128028869629,
                14.352128028869629
            ]
        }
    ],
    "materials" : [
        {
            "doubleSided" : true,
            "extensions" : {
                "KHR_materials_unlit" : {}
            },
            "name" : "Material.002",
            "pbrMetallicRoughness" : {
                "baseColorTexture" : {
                    "index" : 0
                },
                "metallicFactor" : 0,
                "roughnessFactor" : 0.9
            }
        },
        {
            "doubleSided" : true,
            "extensions" : {
                "KHR_materials_unlit" : {}
            },
            "name" : "Material.007",
            "pbrMetallicRoughness" : {
                "baseColorTexture" : {
                    "index" : 1
                },
                "metallicFactor" : 0,
                "roughnessFactor" : 0.9
            }
        },
        {
            "doubleSided" : true,
            "extensions" : {
                "KHR_materials_unlit" : {}
            },
            "name" : "Material.009",
            "pbrMetallicRoughness" : {
                "baseColorTexture" : {
                    "index" : 2
                },
                "metallicFactor" : 0,
                "roughnessFactor" : 0.9
            }
        },
        {
            "doubleSided" : true,
            "extensions" : {
                "KHR_materials_unlit" : {}
            },
            "name" : "Material.003",
            "pbrMetallicRoughness" : {
                "baseColorTexture" : {
                    "index" : 3
                },
                "metallicFactor" : 0,
                "roughnessFactor" : 0.9
            }
        },
        {
            "doubleSided" : true,
            "extensions" : {
                "KHR_materials_unlit" : {}
            },
            "name" : "Material.005",
            "pbrMetallicRoughness" : {
                "baseColorTexture" : {
                    "index" : 4
                },
                "metallicFactor" : 0,
                "roughnessFactor" : 0.9
            }
        },
        {
            "doubleSided" : true,
            "name" : "Material.006",
            "pbrMetallicRoughness" : {
                "baseColorFactor" : [
                    0.1638742834329605,
                    0.8000000715255737,
                    0.06940381228923798,
                    1
                ],
                "metallicFactor" : 0
            }
        },
        {
            "doubleSided" : true,
            "extensions" : {
                "KHR_materials_unlit" : {}
            },
            "name" : "Material.004",
            "pbrMetallicRoughness" : {
                "baseColorTexture" : {
                    "index" : 5
                },
                "metallicFactor" : 0,
                "roughnessFactor" : 0.9
            }
        },
        {
            "doubleSided" : true,
            "name" : "Material.008",
            "pbrMetallicRoughness" : {
                "baseColorFactor" : [
                    0.23935574293136597,
                    0.8000000715255737,
                    0.07177519798278809,
                    1
                ],
                "metallicFactor" : 0
            }
        },
        {
            "doubleSided" : true,
            "extensions" : {
                "KHR_materials_unlit" : {}
            },
            "name" : "Material.001",
            "pbrMetallicRoughness" : {
                "baseColorTexture" : {
                    "index" : 6
                },
                "metallicFactor" : 0,
                "roughnessFactor" : 0.9
            }
        }
    ],
    "meshes" : [
        {
            "name" : "Cube.007",
            "primitives" : [
                {
                    "attributes" : {
                        "POSITION" : 0,
                        "NORMAL" : 1,
                        "TEXCOORD_0" : 2
                    },
                    "indices" : 3,
                    "material" : 0
                }
            ]
        },
        {
            "name" : "Cube.009",
            "primitives" : [
                {
                    "attributes" : {
                        "POSITION" : 4,
                        "NORMAL" : 5,
                        "TEXCOORD_0" : 6
                    },
                    "indices" : 7,
                    "material" : 1
                }
            ]
        },
        {
            "name" : "Cube.010",
            "primitives" : [
                {
                    "attributes" : {
                        "POSITION" : 8,
                        "NORMAL" : 9,
                        "TEXCOORD_0" : 10
                    },
                    "indices" : 11,
                    "material" : 2
                }
            ]
        },
        {
            "name" : "Cube.012",
            "primitives" : [
                {
                    "attributes" : {
                        "POSITION" : 12,
                        "NORMAL" : 13,
                        "TEXCOORD_0" : 14
                    },
                    "indices" : 15,
                    "material" : 3
                }
            ]
        },
        {
            "name" : "Cube.014",
            "primitives" : [
                {
                    "attributes" : {
                        "POSITION" : 16,
                        "NORMAL" : 17,
                        "TEXCOORD_0" : 18
                    },
                    "indices" : 19,
                    "material" : 4
                }
            ]
        },
        {
            "name" : "Cylinder",
            "primitives" : [
                {
                    "attributes" : {
                        "POSITION" : 20,
                        "NORMAL" : 21,
                        "TEXCOORD_0" : 22
                    },
                    "indices" : 23,
                    "material" : 5
                }
            ]
        },
        {
            "name" : "Cube.015",
            "primitives" : [
                {
                    "attributes" : {
                        "POSITION" : 24,
                        "NORMAL" : 25,
                        "TEXCOORD_0" : 26
                    },
                    "indices" : 15,
                    "material" : 6
                }
            ]
        },
        {
            "name" : "Cylinder.002",
            "primitives" : [
                {
                    "attributes" : {
                        "POSITION" : 27,
                        "NORMAL" : 28,
                        "TEXCOORD_0" : 29
                    },
                    "indices" : 23,
                    "material" : 7
                }
            ]
        },
        {
            "name" : "Plane",
            "primitives" : [
                {
                    "attributes" : {
                        "POSITION" : 30,
                        "NORMAL" : 31,
                        "TEXCOORD_0" : 32
                    },
                    "indices" : 33,
                    "material" : 8
                }
            ]
        }
    ],
    "textures" : [
        {
            "sampler" : 0,
            "source" : 0
        },
        {
            "sampler" : 0,
            "source" : 1
        },
        {
            "sampler" : 0,
            "source" : 2
        },
        {
            "sampler" : 0,
            "source" : 3
        },
        {
            "sampler" : 0,
            "source" : 4
        },
        {
            "sampler" : 0,
            "source" : 5
        },
        {
            "sampler" : 0,
            "source" : 6
        }
    ],
    "images" : [
        {
            "bufferView" : 4,
            "mimeType" : "image/png",
            "name" : "Blue cube"
        },
        {
            "bufferView" : 9,
            "mimeType" : "image/png",
            "name" : "Dark blue cube"
        },
        {
            "bufferView" : 14,
            "mimeType" : "image/png",
            "name" : "Dark pink cube"
        },
        {
            "bufferView" : 19,
            "mimeType" : "image/png",
            "name" : "Red cube 1"
        },
        {
            "bufferView" : 24,
            "mimeType" : "image/png",
            "name" : "Yellow cube"
        },
        {
            "bufferView" : 32,
            "mimeType" : "image/png",
            "name" : "Red Cube 2"
        },
        {
            "bufferView" : 40,
            "mimeType" : "image/png",
            "name" : "Yellow Floor"
        }
    ],
    "accessors" : [
        {
            "bufferView" : 0,
            "componentType" : 5126,
            "count" : 216,
            "max" : [
                1,
                2,
                1
            ],
            "min" : [
                -1,
                0,
                -1
            ],
            "type" : "VEC3"
        },
        {
            "bufferView" : 1,
            "componentType" : 5126,
            "count" : 216,
            "type" : "VEC3"
        },
        {
            "bufferView" : 2,
            "componentType" : 5126,
            "count" : 216,
            "type" : "VEC2"
        },
        {
            "bufferView" : 3,
            "componentType" : 5123,
            "count" : 324,
            "type" : "SCALAR"
        },
        {
            "bufferView" : 5,
            "componentType" : 5126,
            "count" : 216,
            "max" : [
                1,
                1,
                1
            ],
            "min" : [
                -1,
                -1,
                -1
            ],
            "type" : "VEC3"
        },
        {
            "bufferView" : 6,
            "componentType" : 5126,
            "count" : 216,
            "type" : "VEC3"
        },
        {
            "bufferView" : 7,
            "componentType" : 5126,
            "count" : 216,
            "type" : "VEC2"
        },
        {
            "bufferView" : 8,
            "componentType" : 5123,
            "count" : 324,
            "type" : "SCALAR"
        },
        {
            "bufferView" : 10,
            "componentType" : 5126,
            "count" : 384,
            "max" : [
                2,
                2.0262293815612793,
                1.999999761581421
            ],
            "min" : [
                0,
                0.026229381561279297,
                -2.384185791015625e-07
            ],
            "type" : "VEC3"
        },
        {
            "bufferView" : 11,
            "componentType" : 5126,
            "count" : 384,
            "type" : "VEC3"
        },
        {
            "bufferView" : 12,
            "componentType" : 5126,
            "count" : 384,
            "type" : "VEC2"
        },
        {
            "bufferView" : 13,
            "componentType" : 5123,
            "count" : 564,
            "type" : "SCALAR"
        },
        {
            "bufferView" : 15,
            "componentType" : 5126,
            "count" : 482,
            "max" : [
                4.76837158203125e-07,
                0.009999988600611687,
                0.004226624965667725
            ],
            "min" : [
                -1.9999994039535522,
                -1.9900002479553223,
                -1.9957735538482666
            ],
            "type" : "VEC3"
        },
        {
            "bufferView" : 16,
            "componentType" : 5126,
            "count" : 482,
            "type" : "VEC3"
        },
        {
            "bufferView" : 17,
            "componentType" : 5126,
            "count" : 482,
            "type" : "VEC2"
        },
        {
            "bufferView" : 18,
            "componentType" : 5123,
            "count" : 852,
            "type" : "SCALAR"
        },
        {
            "bufferView" : 20,
            "componentType" : 5126,
            "count" : 216,
            "max" : [
                1.989999771118164,
                2.000000476837158,
                1.9900002479553223
            ],
            "min" : [
                -0.010000050067901611,
                0,
                -0.009999871253967285
            ],
            "type" : "VEC3"
        },
        {
            "bufferView" : 21,
            "componentType" : 5126,
            "count" : 216,
            "type" : "VEC3"
        },
        {
            "bufferView" : 22,
            "componentType" : 5126,
            "count" : 216,
            "type" : "VEC2"
        },
        {
            "bufferView" : 23,
            "componentType" : 5123,
            "count" : 324,
            "type" : "SCALAR"
        },
        {
            "bufferView" : 25,
            "componentType" : 5126,
            "count" : 60,
            "max" : [
                1,
                1,
                4.371138828673793e-08
            ],
            "min" : [
                -2.059989334668444e-08,
                -0.5375899076461792,
                -1
            ],
            "type" : "VEC3"
        },
        {
            "bufferView" : 26,
            "componentType" : 5126,
            "count" : 60,
            "type" : "VEC3"
        },
        {
            "bufferView" : 27,
            "componentType" : 5126,
            "count" : 60,
            "type" : "VEC2"
        },
        {
            "bufferView" : 28,
            "componentType" : 5123,
            "count" : 108,
            "type" : "SCALAR"
        },
        {
            "bufferView" : 29,
            "componentType" : 5126,
            "count" : 482,
            "max" : [
                4.76837158203125e-07,
                0.009999988600611687,
                0.004226624965667725
            ],
            "min" : [
                -1.9999994039535522,
                -1.9900002479553223,
                -1.9957735538482666
            ],
            "type" : "VEC3"
        },
        {
            "bufferView" : 30,
            "componentType" : 5126,
            "count" : 482,
            "type" : "VEC3"
        },
        {
            "bufferView" : 31,
            "componentType" : 5126,
            "count" : 482,
            "type" : "VEC2"
        },
        {
            "bufferView" : 33,
            "componentType" : 5126,
            "count" : 60,
            "max" : [
                1,
                1,
                4.371138828673793e-08
            ],
            "min" : [
                -2.059989334668444e-08,
                -0.5375899076461792,
                -1
            ],
            "type" : "VEC3"
        },
        {
            "bufferView" : 34,
            "componentType" : 5126,
            "count" : 60,
            "type" : "VEC3"
        },
        {
            "bufferView" : 35,
            "componentType" : 5126,
            "count" : 60,
            "type" : "VEC2"
        },
        {
            "bufferView" : 36,
            "componentType" : 5126,
            "count" : 24,
            "max" : [
                1,
                0.44805487990379333,
                1
            ],
            "min" : [
                -1,
                0,
                -1
            ],
            "type" : "VEC3"
        },
        {
            "bufferView" : 37,
            "componentType" : 5126,
            "count" : 24,
            "type" : "VEC3"
        },
        {
            "bufferView" : 38,
            "componentType" : 5126,
            "count" : 24,
            "type" : "VEC2"
        },
        {
            "bufferView" : 39,
            "componentType" : 5123,
            "count" : 66,
            "type" : "SCALAR"
        }
    ],
    "bufferViews" : [
        {
            "buffer" : 0,
            "byteLength" : 2592,
            "byteOffset" : 0
        },
        {
            "buffer" : 0,
            "byteLength" : 2592,
            "byteOffset" : 2592
        },
        {
            "buffer" : 0,
            "byteLength" : 1728,
            "byteOffset" : 5184
        },
        {
            "buffer" : 0,
            "byteLength" : 648,
            "byteOffset" : 6912
        },
        {
            "buffer" : 0,
            "byteLength" : 210493,
            "byteOffset" : 7560
        },
        {
            "buffer" : 0,
            "byteLength" : 2592,
            "byteOffset" : 218056
        },
        {
            "buffer" : 0,
            "byteLength" : 2592,
            "byteOffset" : 220648
        },
        {
            "buffer" : 0,
            "byteLength" : 1728,
            "byteOffset" : 223240
        },
        {
            "buffer" : 0,
            "byteLength" : 648,
            "byteOffset" : 224968
        },
        {
            "buffer" : 0,
            "byteLength" : 124131,
            "byteOffset" : 225616
        },
        {
            "buffer" : 0,
            "byteLength" : 4608,
            "byteOffset" : 349748
        },
        {
            "buffer" : 0,
            "byteLength" : 4608,
            "byteOffset" : 354356
        },
        {
            "buffer" : 0,
            "byteLength" : 3072,
            "byteOffset" : 358964
        },
        {
            "buffer" : 0,
            "byteLength" : 1128,
            "byteOffset" : 362036
        },
        {
            "buffer" : 0,
            "byteLength" : 124010,
            "byteOffset" : 363164
        },
        {
            "buffer" : 0,
            "byteLength" : 5784,
            "byteOffset" : 487176
        },
        {
            "buffer" : 0,
            "byteLength" : 5784,
            "byteOffset" : 492960
        },
        {
            "buffer" : 0,
            "byteLength" : 3856,
            "byteOffset" : 498744
        },
        {
            "buffer" : 0,
            "byteLength" : 1704,
            "byteOffset" : 502600
        },
        {
            "buffer" : 0,
            "byteLength" : 183839,
            "byteOffset" : 504304
        },
        {
            "buffer" : 0,
            "byteLength" : 2592,
            "byteOffset" : 688144
        },
        {
            "buffer" : 0,
            "byteLength" : 2592,
            "byteOffset" : 690736
        },
        {
            "buffer" : 0,
            "byteLength" : 1728,
            "byteOffset" : 693328
        },
        {
            "buffer" : 0,
            "byteLength" : 648,
            "byteOffset" : 695056
        },
        {
            "buffer" : 0,
            "byteLength" : 198577,
            "byteOffset" : 695704
        },
        {
            "buffer" : 0,
            "byteLength" : 720,
            "byteOffset" : 894284
        },
        {
            "buffer" : 0,
            "byteLength" : 720,
            "byteOffset" : 895004
        },
        {
            "buffer" : 0,
            "byteLength" : 480,
            "byteOffset" : 895724
        },
        {
            "buffer" : 0,
            "byteLength" : 216,
            "byteOffset" : 896204
        },
        {
            "buffer" : 0,
            "byteLength" : 5784,
            "byteOffset" : 896420
        },
        {
            "buffer" : 0,
            "byteLength" : 5784,
            "byteOffset" : 902204
        },
        {
            "buffer" : 0,
            "byteLength" : 3856,
            "byteOffset" : 907988
        },
        {
            "buffer" : 0,
            "byteLength" : 141301,
            "byteOffset" : 911844
        },
        {
            "buffer" : 0,
            "byteLength" : 720,
            "byteOffset" : 1053148
        },
        {
            "buffer" : 0,
            "byteLength" : 720,
            "byteOffset" : 1053868
        },
        {
            "buffer" : 0,
            "byteLength" : 480,
            "byteOffset" : 1054588
        },
        {
            "buffer" : 0,
            "byteLength" : 288,
            "byteOffset" : 1055068
        },
        {
            "buffer" : 0,
            "byteLength" : 288,
            "byteOffset" : 1055356
        },
        {
            "buffer" : 0,
            "byteLength" : 192,
            "byteOffset" : 1055644
        },
        {
            "buffer" : 0,
            "byteLength" : 132,
            "byteOffset" : 1055836
        },
        {
            "buffer" : 0,
            "byteLength" : 1678525,
            "byteOffset" : 1055968
        }
    ],
    "samplers" : [
        {
            "magFilter" : 9729,
            "minFilter" : 9987
        }
    ],
    "buffers" : [
        {
            "byteLength" : 2734496,
            "uri" : "data:application/octet-stream;base64,"
        }
    ]
}
